<?xml version="1.0" encoding="UTF-8" standalone="no"?>
<!-- Uploaded to: SVG Repo, www.svgrepo.com, Generator: SVG Repo Mixer Tools -->

<svg
   height="800px"
   width="800px"
   version="1.1"
   id="Capa_1"
   viewBox="0 0 525.325 525.325"
   xml:space="preserve"
   sodipodi:docname="property-icon.svg"
   inkscape:version="1.4.2 (f4327f4, 2025-05-13)"
   xmlns:inkscape="http://www.inkscape.org/namespaces/inkscape"
   xmlns:sodipodi="http://sodipodi.sourceforge.net/DTD/sodipodi-0.dtd"
   xmlns="http://www.w3.org/2000/svg"
   xmlns:svg="http://www.w3.org/2000/svg"><defs
   id="defs1" /><sodipodi:namedview
   id="namedview1"
   pagecolor="#505050"
   bordercolor="#eeeeee"
   borderopacity="1"
   inkscape:showpageshadow="0"
   inkscape:pageopacity="0"
   inkscape:pagecheckerboard="0"
   inkscape:deskcolor="#505050"
   inkscape:zoom="0.72937499"
   inkscape:cx="116.53813"
   inkscape:cy="399.65725"
   inkscape:window-width="2560"
   inkscape:window-height="1369"
   inkscape:window-x="-8"
   inkscape:window-y="-8"
   inkscape:window-maximized="1"
   inkscape:current-layer="g6" />
<g
   id="g1"
   transform="matrix(1.0007541,0,0,0.96334492,-0.19807395,9.6729914)">
	
<g
   id="g6"
   transform="matrix(0.87189869,0,0,0.87189869,343.79363,91.003685)"><path
     id="path2-2-1"
     style="display:inline;fill:#583234;fill-opacity:1;stroke-width:29.5991;stroke-linecap:round;stroke-linejoin:round"
     d="m -264.13205,6.582281 c -2.53494,-0.011 -167.75799,99.718319 -169.04184,101.386279 -1.28386,1.66796 -1.25109,164.18967 0,165.86859 1.25108,1.67893 213.33689,129.46253 215.87182,129.4735 2.53493,0.0109 167.757999,-99.71831 169.041849,-101.38627 1.28385,-1.66797 1.25109,-164.18967 0,-165.8686 C -49.511301,134.37686 -261.59712,6.593241 -264.13205,6.582281 Z"
     sodipodi:nodetypes="sssssss"
     inkscape:label="red-bg"
     transform="translate(232.18689,-58.813959)" /><path
     id="path2-2"
     style="display:inline;fill:#304434;fill-opacity:1;stroke-width:29.5991;stroke-linecap:round;stroke-linejoin:round"
     d="m -433.1739,107.96856 c -2.53494,-0.011 -167.75799,99.71832 -169.04184,101.38628 -1.28386,1.66796 -1.25109,164.18967 0,165.86859 1.25108,1.67893 213.33689,129.46253 215.87182,129.4735 2.53493,0.0109 167.758,-99.71831 169.04185,-101.38627 1.28385,-1.66797 1.25109,-164.18967 0,-165.8686 -1.25108,-1.67892 -213.3369,-129.46254 -215.87183,-129.4735 z"
     sodipodi:nodetypes="sssssss"
     inkscape:label="green-bg"
     transform="translate(232.18689,-58.813959)" /><g
     id="g18"
     inkscape:label="red"
     transform="translate(-1.5360302e-6)"><path
       style="fill:none;stroke:#db5c5c;stroke-width:30.68156114;stroke-linecap:round;stroke-linejoin:round;stroke-dasharray:none;stroke-opacity:1"
       d="M -200.98701,49.154601 -31.945154,-52.231678"
       id="path13" /><path
       style="fill:none;stroke:#db5c5c;stroke-width:30.68156114;stroke-linecap:round;stroke-linejoin:round;stroke-dasharray:none;stroke-opacity:1"
       d="M 14.884819,178.6281 183.92666,77.241825"
       id="path14" /><path
       style="fill:none;stroke:#db5c5c;stroke-width:30.68156114;stroke-linecap:round;stroke-linejoin:round;stroke-dasharray:none;stroke-opacity:1"
       d="M -31.945161,-52.231678 183.92666,77.241825"
       id="path15" /><path
       style="fill:none;stroke:#db5c5c;stroke-width:30.68156114;stroke-linecap:round;stroke-linejoin:round;stroke-dasharray:none;stroke-opacity:1"
       d="M 14.884812,344.4967 183.92666,243.11043"
       id="path17" /><path
       style="fill:none;stroke:#db5c5c;stroke-width:30.68156114;stroke-linecap:round;stroke-linejoin:round;stroke-dasharray:none;stroke-opacity:1"
       d="M 183.92666,77.241825 V 243.11043"
       id="path18" /></g><g
     id="g12"
     inkscape:label="green"
     transform="translate(-1.5360302e-6)"><path
       style="fill:none;stroke:#57965c;stroke-width:30.68156114;stroke-linecap:round;stroke-linejoin:round;stroke-dasharray:none;stroke-opacity:1"
       d="M -154.15703,445.88297 -370.02885,316.40947 V 150.54088 l 215.87182,129.4735 z"
       id="path3"
       sodipodi:nodetypes="cccc" /><path
       style="fill:none;stroke:#57965c;stroke-width:30.68156114;stroke-linecap:round;stroke-linejoin:round;stroke-dasharray:none;stroke-opacity:1"
       d="M -154.15703,280.01438 14.884822,178.6281"
       id="path6" /><path
       style="fill:none;stroke:#57965c;stroke-width:30.68156114;stroke-linecap:round;stroke-linejoin:round;stroke-dasharray:none;stroke-opacity:1"
       d="M -282.01885,511.96607 -112.977,410.5798"
       id="path8"
       transform="translate(127.86182,-66.0831)" /><path
       style="fill:none;stroke:#57965c;stroke-width:30.68156114;stroke-linecap:round;stroke-linejoin:round;stroke-dasharray:none;stroke-opacity:1"
       d="M -112.977,244.7112 -328.84882,115.2377"
       id="path9"
       transform="translate(127.86182,-66.0831)" /><path
       style="fill:none;stroke:#57965c;stroke-width:30.68156114;stroke-linecap:round;stroke-linejoin:round;stroke-dasharray:none;stroke-opacity:1"
       d="M -112.977,410.5798 V 244.7112"
       id="path10"
       transform="translate(127.86182,-66.0831)" /><path
       style="fill:none;stroke:#57965c;stroke-width:30.68156114;stroke-linecap:round;stroke-linejoin:round;stroke-dasharray:none;stroke-opacity:1"
       d="M -370.02886,150.54088 -200.98701,49.154601"
       id="path12" /></g></g></g>
</svg>
