<?xml version="1.0" encoding="UTF-8" standalone="no"?>
<!-- Uploaded to: SVG Repo, www.svgrepo.com, Generator: SVG Repo Mixer Tools -->

<svg
   height="800px"
   width="800px"
   version="1.1"
   id="Capa_1"
   viewBox="0 0 525.325 525.325"
   xml:space="preserve"
   sodipodi:docname="array-element-icon.svg"
   inkscape:version="1.4.2 (f4327f4, 2025-05-13)"
   xmlns:inkscape="http://www.inkscape.org/namespaces/inkscape"
   xmlns:sodipodi="http://sodipodi.sourceforge.net/DTD/sodipodi-0.dtd"
   xmlns="http://www.w3.org/2000/svg"
   xmlns:svg="http://www.w3.org/2000/svg"><defs
   id="defs1"><rect
     x="-189.20309"
     y="237.18938"
     width="253.90559"
     height="267.65643"
     id="rect2" /><rect
     x="-189.20309"
     y="237.18938"
     width="270.38657"
     height="268.04607"
     id="rect2-2" /><rect
     x="-189.20309"
     y="237.18938"
     width="270.38657"
     height="268.04608"
     id="rect2-2-2" /><rect
     x="-189.20309"
     y="237.18938"
     width="253.90559"
     height="267.65643"
     id="rect2-21" /></defs><sodipodi:namedview
   id="namedview1"
   pagecolor="#505050"
   bordercolor="#eeeeee"
   borderopacity="1"
   inkscape:showpageshadow="0"
   inkscape:pageopacity="0"
   inkscape:pagecheckerboard="0"
   inkscape:deskcolor="#505050"
   inkscape:zoom="0.515746"
   inkscape:cx="64.954454"
   inkscape:cy="167.71822"
   inkscape:window-width="2560"
   inkscape:window-height="1369"
   inkscape:window-x="-8"
   inkscape:window-y="-8"
   inkscape:window-maximized="1"
   inkscape:current-layer="g1" />
<g
   id="g1"
   transform="matrix(1.0007541,0,0,0.96334492,-0.19807395,9.6729914)">
	
<rect
   style="fill:#25324d;fill-opacity:1;stroke:#548af7;stroke-width:30.0951;stroke-linecap:round;stroke-linejoin:round;stroke-opacity:1"
   id="rect1"
   width="272.45956"
   height="82.279037"
   x="177.72562"
   y="147.18619"
   rx="2.1590915"
   ry="0" /><rect
   style="fill:#25324d;fill-opacity:1;stroke:#548af7;stroke-width:30.0951;stroke-linecap:round;stroke-linejoin:round;stroke-opacity:1"
   id="rect1-1"
   width="272.45956"
   height="82.279037"
   x="177.72559"
   y="295.7662"
   rx="2.1590915"
   ry="0" /><text
   xml:space="preserve"
   transform="matrix(0.65616144,0,0,0.68164189,175.41263,-58.931152)"
   id="text1"
   style="font-style:normal;font-variant:normal;font-weight:normal;font-stretch:normal;font-size:218.667px;font-family:'Cascadia Mono';-inkscape-font-specification:'Cascadia Mono';text-align:start;letter-spacing:0px;word-spacing:0px;writing-mode:lr-tb;direction:ltr;white-space:pre;shape-inside:url(#rect2);display:none;fill:#cbcdd4;fill-opacity:1;stroke:none;stroke-width:45;stroke-linecap:round;stroke-linejoin:round;stroke-opacity:1"><tspan
     x="-189.20312"
     y="439.08893"
     id="tspan2">1</tspan></text><text
   xml:space="preserve"
   transform="matrix(0.65616144,0,0,0.68164189,176.81381,94.22295)"
   id="text1-5"
   style="font-style:normal;font-variant:normal;font-weight:normal;font-stretch:normal;font-size:218.667px;font-family:'Cascadia Mono';-inkscape-font-specification:'Cascadia Mono';text-align:start;letter-spacing:0px;word-spacing:0px;writing-mode:lr-tb;direction:ltr;white-space:pre;shape-inside:url(#rect2-2);display:none;fill:#cbcdd4;fill-opacity:1;stroke:none;stroke-width:45;stroke-linecap:round;stroke-linejoin:round;stroke-opacity:1"
   inkscape:label="text2"><tspan
     x="-189.20312"
     y="439.08893"
     id="tspan3">2</tspan></text><path
   d="M -132.6145,439.08893 V 287.47411 h 21.3542 v 151.61482 z m -38.43756,0 v -20.28649 h 40.57298 v 20.28649 z m 57.65634,0 v -20.28649 h 36.515687 v 20.28649 z m -55.52092,-117.23456 v -21.56774 l 36.30214,-12.81252 v 21.99482 z"
   id="text1-57"
   style="font-size:218.667px;font-family:'Cascadia Mono';-inkscape-font-specification:'Cascadia Mono';letter-spacing:0px;word-spacing:0px;white-space:pre;fill:#cbcdd4;stroke-width:45;stroke-linecap:round;stroke-linejoin:round"
   transform="matrix(0.65616144,0,0,0.68164189,175.41263,-58.931152)"
   aria-label="1" /><path
   d="m -172.97393,439.08893 v -23.91671 q 35.12766,-19.43232 52.42456,-40.57298 17.40367,-21.14065 17.40367,-43.56256 0,-13.02607 -6.40626,-19.5391 -6.40626,-6.51303 -19.43232,-6.51303 -8.64845,0 -18.0443,5.01824 -9.39585,5.01824 -16.12242,13.34637 l -14.7344,-14.62762 q 7.3672,-10.57033 20.92712,-16.97659 13.55991,-6.40626 28.40108,-6.40626 24.02348,0 35.875059,11.42449 11.958352,11.31773 11.958352,34.2735 0,23.06253 -14.627627,44.30996 -14.520854,21.14066 -44.309964,40.67975 v 23.06254 z m 6.40626,0 v -19.85941 h 92.250141 v 19.85941 z"
   id="text1-5-6"
   style="font-size:218.667px;font-family:'Cascadia Mono';-inkscape-font-specification:'Cascadia Mono';letter-spacing:0px;word-spacing:0px;white-space:pre;fill:#cbcdd4;stroke-width:45;stroke-linecap:round;stroke-linejoin:round"
   inkscape:label="text2"
   transform="matrix(0.65616144,0,0,0.68164189,176.81381,94.22296)"
   aria-label="2" /></g>
</svg>
